<?xml version="1.0" encoding="utf-8"?>
<!-- Generator: Adobe Illustrator 25.0.0, SVG Export Plug-In . SVG Version: 6.00 Build 0)  -->
<svg version="1.1" id="レイヤー_1" xmlns="http://www.w3.org/2000/svg" xmlns:xlink="http://www.w3.org/1999/xlink" x="0px"
	 y="0px" viewBox="0 0 500 500" style="enable-background:new 0 0 500 500;" xml:space="preserve">
<style type="text/css">
	.st0{clip-path:url(#SVGID_2_);}
	.st1{fill:url(#SVGID_3_);}
	.st2{clip-path:url(#SVGID_2_);fill:#FFFFFF;}
	.st3{fill:url(#SVGID_4_);}
	.st4{opacity:0.3;fill:#131313;}
	.st5{fill:url(#SVGID_5_);}
	.st6{fill:url(#SVGID_6_);}
</style>
<g>
	<g>
		<g>
			<defs>
				<path id="SVGID_1_" d="M246.5,205.7c106.7,0,209.3,42.9,233.8,107.1c31,81.2-69.9,164.6-233.8,164.6
					c-164,0-264.8-83.4-233.8-164.6C37.1,248.6,139.8,205.7,246.5,205.7z"/>
			</defs>
			<clipPath id="SVGID_2_">
				<use xlink:href="#SVGID_1_"  style="overflow:visible;"/>
			</clipPath>
			<g class="st0">
				
					<linearGradient id="SVGID_3_" gradientUnits="userSpaceOnUse" x1="1257.6831" y1="287.9398" x2="981.9012" y2="563.7218" gradientTransform="matrix(-1 0 0 -1 1366.2795 768.2366)">
					<stop  offset="0" style="stop-color:#326432"/>
					<stop  offset="0.5113" style="stop-color:#55A556"/>
					<stop  offset="1" style="stop-color:#326432"/>
				</linearGradient>
				<path class="st1" d="M246.5,205.7c106.7,0,209.3,42.9,233.8,107.1c31,81.2-69.9,164.6-233.8,164.6
					c-164,0-264.8-83.4-233.8-164.6C37.2,248.6,139.8,205.7,246.5,205.7z"/>
			</g>
			<path class="st2" d="M481.9,487.2L361,394.9c39.5-17,64.7-42.6,64.7-71.3c0-12.9-5.1-25.1-14.3-36.3l60-10.8l-1.5-8.4L404.6,280
				c-29.6-28.5-87.2-48.1-153.8-48.9v-37.9h-8.5V231C175.6,231.8,118,251.4,88.4,280L19,267.5l-1.5,8.4l64,11.5
				c-9.2,11.1-14.3,23.4-14.3,36.3c0,27.5,23.2,52.2,60.1,69.2l-69.6,58.7l5.5,6.5l72.8-61.5c30.4,12.3,68.8,19.7,110.4,19.7
				c39.4,0,75.8-6.6,105.4-17.7L476.7,494L481.9,487.2z"/>
		</g>
		<g>
			<linearGradient id="SVGID_4_" gradientUnits="userSpaceOnUse" x1="464.5128" y1="446.1122" x2="402.42" y2="508.205">
				<stop  offset="0" style="stop-color:#326432"/>
				<stop  offset="0.5113" style="stop-color:#55A556"/>
				<stop  offset="1" style="stop-color:#326432"/>
			</linearGradient>
			<path class="st3" d="M363.4,469.2l129.6,26.6l-46.7-67.9C424.4,445.4,396.1,459.4,363.4,469.2z"/>
		</g>
		<polygon class="st4" points="492.9,495.8 106.1,416.4 132.9,307.2 246.2,221.2 354.3,294.1 		"/>
	</g>
	<g>
		
			<linearGradient id="SVGID_5_" gradientUnits="userSpaceOnUse" x1="262.5633" y1="8.4044" x2="262.5633" y2="368.0688" gradientTransform="matrix(0.9999 1.549787e-02 -1.549787e-02 0.9999 -3.5734 -8.4483)">
			<stop  offset="0" style="stop-color:#E0E0E0"/>
			<stop  offset="0.3019" style="stop-color:#808080"/>
			<stop  offset="0.3392" style="stop-color:#545454"/>
			<stop  offset="0.5144" style="stop-color:#404040"/>
			<stop  offset="0.5778" style="stop-color:#000000"/>
			<stop  offset="0.7612" style="stop-color:#7B7B7B"/>
			<stop  offset="1" style="stop-color:#000000"/>
		</linearGradient>
		<path class="st5" d="M266.7,4.4c24.7-1.3,39.4,6.3,45.7,21.3c6.6,15.9,28.4,61.9,23.5,81.3c-3,11.6-21.1,60.6-21.1,60.6
			c-5.2,12.5-10,12.7-15.9,12.9c-23.6,0.9-43.2,0.4-38.2,27.4c5.2,27.6,38.4,49.5,28.6,73c-6.6,15.9-26.8,78.7-26.8,78.7l-31.1-0.2
			l-75.9-25.5c-9.4-3.7-17.1-17.1-12.3-38.3c17.5-76.9,55.5-243.5,62.3-273.5C222.1,19.7,266.7,4.4,266.7,4.4z M340.3,323.9
			c32.2,4.6,27.2-39.9,24.4-51c-2.2-8.7-9-36.4-27.3-43.8c-10.6-4.3-22.7-2.4-28.2-2.3c-26.5,0.3-8.4,49.4-3.7,63.1
			c4.1,11.9,2.4,20,10.1,25.9C320.7,319.8,335.2,323.2,340.3,323.9z M331.2,333.2c7.9,2.1,9.6,4.7,12,9c2.4,4.3,13.5,24,13.5,24
			c5.5,11,4.2,33.7-7.4,30l-13.1-3.1l-13-5.4c-6.6-1.8-19.7-23.3-9.7-36.9c0,0-2.4-16.9,3.9-20.8C318.6,329.3,330.2,333,331.2,333.2
			z"/>
		
			<linearGradient id="SVGID_6_" gradientUnits="userSpaceOnUse" x1="303.4507" y1="88.062" x2="183.8414" y2="472.4775" gradientTransform="matrix(0.9929 0.1193 -0.1193 0.9929 49.6645 -90.8473)">
			<stop  offset="0" style="stop-color:#EED532"/>
			<stop  offset="0.1487" style="stop-color:#F2DC52"/>
			<stop  offset="0.3662" style="stop-color:#FFF8B4"/>
			<stop  offset="0.5982" style="stop-color:#EFC63D"/>
			<stop  offset="0.8916" style="stop-color:#F1BB00"/>
		</linearGradient>
		<path class="st6" d="M252.4,5.5c20.1-2.9,29.3,0,35.2,14.9c6.3,15.7,27.4,61.3,22.2,80.5c-3.1,11.5-21.6,60.1-21.6,60.1
			c-5.3,12.4-10,12.6-15.9,12.8c-23.4,0.9-42.8,0.5-38.1,27.1c4.8,27.4,37.4,48.9,27.4,72.2c-6.7,15.8-30.3,86.3-30.3,86.3
			l-102.7-33.7c-9.3-3.7-16.7-16.9-11.7-37.9c15.9-66.4,60.7-253.6,60.7-253.6c2.4-10.4,10.3-18,21.7-20L252.4,5.5z M324.1,317.8
			c32.6,0.1,27.3-39.6,24.5-50.6c-2.7-10.9-12.8-40.7-39.5-40.4c-26.5,0.3-24,43.7-19.5,57.3C296.3,304,311.6,317.8,324.1,317.8z
			 M317.4,330c8,0,9.5,4.7,11.9,9c2.4,4.3,13.3,23.9,13.3,23.9c5.4,10.9,4,33.6-7.5,29.9l-26-8.5c-6.6-1.8-19.4-23.2-9.5-36.8
			C299.7,347.6,311.1,330,317.4,330z"/>
	</g>
</g>
</svg>
