<?xml version="1.0" ?><svg height="60px" version="1.1" viewBox="0 0 60 60" width="60px" xmlns="http://www.w3.org/2000/svg" xmlns:xlink="http://www.w3.org/1999/xlink"><title/><desc/><defs/><g fill="none" fill-rule="evenodd" id="People" stroke="none" stroke-width="1"><g fill="#000000" id="Icon-21"><path d="M59,2 L51.414,2 L49.707,0.293 C49.316,-0.098 48.684,-0.098 48.293,0.293 L46.586,2 L1,2 C0.448,2 0,2.448 0,3 L0,15 C0,15.552 0.448,16 1,16 L43,16 C43.552,16 44,15.552 44,15 L44,11 C44,10.448 43.552,10 43,10 C42.448,10 42,10.448 42,11 L42,14 L38,14 L38,13 C38,12.448 37.552,12 37,12 C36.448,12 36,12.448 36,13 L36,14 L32,14 L32,13 C32,12.448 31.552,12 31,12 C30.448,12 30,12.448 30,13 L30,14 L26,14 L26,11 C26,10.448 25.552,10 25,10 C24.448,10 24,10.448 24,11 L24,14 L20,14 L20,13 C20,12.448 19.552,12 19,12 C18.448,12 18,12.448 18,13 L18,14 L14,14 L14,13 C14,12.448 13.552,12 13,12 C12.448,12 12,12.448 12,13 L12,14 L8,14 L8,11 C8,10.448 7.552,10 7,10 C6.448,10 6,10.448 6,11 L6,14 L2,14 L2,4 L47,4 C47.265,4 47.52,3.895 47.707,3.707 L49,2.414 L50.293,3.707 C50.48,3.895 50.735,4 51,4 L58,4 L58,14 L47,14 C46.448,14 46,14.448 46,15 C46,15.552 46.448,16 47,16 L59,16 C59.552,16 60,15.552 60,15 L60,3 C60,2.448 59.552,2 59,2 M54,9 C54,7.897 53.103,7 52,7 C50.897,7 50,7.897 50,9 C50,10.103 50.897,11 52,11 C53.103,11 54,10.103 54,9 M8,50 C8,51.103 8.897,52 10,52 C11.103,52 12,51.103 12,50 C12,48.897 11.103,48 10,48 C8.897,48 8,48.897 8,50 M50.707,18.293 C50.316,17.902 49.684,17.902 49.293,18.293 L10,57.586 L2.414,50 L12,40.414 L13.293,41.707 C13.488,41.902 13.744,42 14,42 C14.256,42 14.512,41.902 14.707,41.707 C15.098,41.316 15.098,40.684 14.707,40.293 L13.414,39 L16,36.414 L17.293,37.707 C17.488,37.902 17.744,38 18,38 C18.256,38 18.512,37.902 18.707,37.707 C19.098,37.316 19.098,36.684 18.707,36.293 L17.414,35 L20,32.414 L23.293,35.707 C23.488,35.902 23.744,36 24,36 C24.256,36 24.512,35.902 24.707,35.707 C25.098,35.316 25.098,34.684 24.707,34.293 L21.414,31 L24,28.414 L25.293,29.707 C25.488,29.902 25.744,30 26,30 C26.256,30 26.512,29.902 26.707,29.707 C27.098,29.316 27.098,28.684 26.707,28.293 L25.414,27 L28,24.414 L29.293,25.707 C29.488,25.902 29.744,26 30,26 C30.256,26 30.512,25.902 30.707,25.707 C31.098,25.316 31.098,24.684 30.707,24.293 L29.414,23 L32,20.414 L35.293,23.707 C35.684,24.098 36.316,24.098 36.707,23.707 C37.098,23.316 37.098,22.684 36.707,22.293 L32.707,18.293 C32.316,17.902 31.684,17.902 31.293,18.293 L0.293,49.293 C-0.098,49.684 -0.098,50.316 0.293,50.707 L9.293,59.707 C9.488,59.902 9.744,60 10,60 C10.256,60 10.512,59.902 10.707,59.707 L50.707,19.707 C51.098,19.316 51.098,18.684 50.707,18.293 M60,45 L60,57 C60,57.552 59.552,58 59,58 L17,58 C16.448,58 16,57.552 16,57 C16,56.448 16.448,56 17,56 L58,56 L58,46 L54,46 L54,49 C54,49.552 53.552,50 53,50 C52.448,50 52,49.552 52,49 L52,46 L48,46 L48,47 C48,47.552 47.552,48 47,48 C46.448,48 46,47.552 46,47 L46,46 L42,46 L42,47 C42,47.552 41.552,48 41,48 C40.448,48 40,47.552 40,47 L40,46 L36,46 L36,49 C36,49.552 35.552,50 35,50 C34.448,50 34,49.552 34,49 L34,46 L30,46 L30,47 C30,47.552 29.552,48 29,48 C28.448,48 28,47.552 28,47 L28,45 C28,44.448 28.448,44 29,44 L59,44 C59.552,44 60,44.448 60,45" id="ruler"/></g></g></svg>