<?xml version="1.0" ?><!DOCTYPE svg  PUBLIC '-//W3C//DTD SVG 1.1//EN'  'http://www.w3.org/Graphics/SVG/1.1/DTD/svg11.dtd'><svg enable-background="new 0 0 48 48" height="48px" id="Layer_3" version="1.1" viewBox="0 0 48 48" width="48px" xml:space="preserve" xmlns="http://www.w3.org/2000/svg" xmlns:xlink="http://www.w3.org/1999/xlink"><g><rect fill="#241F20" height="6" width="25" x="23" y="1"/><rect fill="#241F20" height="6" width="25" x="23" y="14"/><rect fill="#241F20" height="6" width="25" x="23" y="28"/><rect fill="#241F20" height="6" width="25" x="23" y="41"/><path d="M15.385,2.314c0.11-0.088,0.305-0.272,0.587-0.554l-0.028,0.835l-0.016,0.762V8h1.696v-8.023H16.23   l-2.585,2.058l0.818,1.021L15.385,2.314z" fill="#241F20"/><path d="M15.748,13.147c-0.3,0.074-0.579,0.179-0.833,0.315c-0.255,0.136-0.575,0.369-0.962,0.698l0.903,1.07   c0.312-0.258,0.612-0.457,0.898-0.597c0.287-0.14,0.583-0.21,0.887-0.21c0.29,0,0.522,0.077,0.696,0.231   c0.174,0.155,0.26,0.389,0.26,0.705c0,0.211-0.04,0.416-0.118,0.612c-0.079,0.197-0.208,0.412-0.388,0.643   c-0.179,0.231-0.561,0.646-1.145,1.244l-1.973,1.995v1.156h5.495v-1.398h-3.424v-0.074l1.01-0.952   c0.673-0.617,1.145-1.091,1.412-1.424c0.267-0.334,0.464-0.66,0.591-0.977c0.128-0.317,0.191-0.657,0.191-1.019   c0-0.416-0.104-0.785-0.312-1.108c-0.208-0.322-0.5-0.573-0.876-0.752c-0.376-0.179-0.81-0.269-1.301-0.269   C16.386,13.037,16.049,13.074,15.748,13.147z" fill="#241F20"/><path d="M16.102,33.604c-0.348,0-0.698-0.046-1.053-0.141c-0.354-0.094-0.679-0.215-0.975-0.364v1.371   c0.639,0.273,1.372,0.411,2.2,0.411c0.987,0,1.746-0.205,2.278-0.613s0.797-0.979,0.797-1.712c0-0.504-0.158-0.904-0.474-1.201   c-0.316-0.298-0.781-0.484-1.396-0.561v-0.032c0.521-0.125,0.926-0.353,1.214-0.688c0.288-0.333,0.432-0.738,0.432-1.215   c0-0.569-0.228-1.014-0.686-1.334c-0.457-0.32-1.08-0.479-1.868-0.479c-0.963,0-1.792,0.25-2.487,0.751l0.746,1.109   c0.316-0.204,0.604-0.349,0.863-0.432c0.259-0.083,0.514-0.126,0.764-0.126c0.723,0,1.084,0.288,1.084,0.865   c0,0.375-0.136,0.642-0.409,0.794c-0.273,0.155-0.705,0.232-1.295,0.232h-0.589v1.236h0.579c0.639,0,1.104,0.074,1.396,0.225   c0.292,0.149,0.438,0.402,0.438,0.761c0,0.399-0.127,0.69-0.38,0.871C17.026,33.514,16.634,33.604,16.102,33.604z" fill="#241F20"/><path d="M18.755,40.077H17.21l-3.473,5.116v1.164h3.382V48h1.636v-1.643h0.954v-1.3h-0.954V40.077z M17.146,42.738   c-0.018,0.427-0.027,0.751-0.027,0.976v1.344h-1.908l1.453-2.195c0.187-0.281,0.348-0.569,0.482-0.866h0.043   C17.179,42.065,17.164,42.312,17.146,42.738z" fill="#241F20"/></g><polygon fill="#241F20" points="0,48 4.07,48 13.092,0 9.021,0 "/></svg>