<?xml version="1.0" ?><svg height="20" version="1.1" viewBox="0 0 20 20" width="20" xmlns="http://www.w3.org/2000/svg"><g id="layer1"><path d="M 0 1 L 0 4 L 4 4 L 4 1 L 0 1 z M 6 1 L 6 2 L 18 2 L 18 1 L 6 1 z M 1 2 L 3 2 L 3 3 L 1 3 L 1 2 z M 6 3 L 6 4 L 12 4 L 12 3 L 6 3 z M 6 5 L 6 6 L 20 6 L 20 5 L 6 5 z M 6 7 L 6 8 L 16 8 L 16 7 L 6 7 z M 0 12 L 0 15 L 4 15 L 4 12 L 0 12 z M 6 12 L 6 13 L 18 13 L 18 12 L 6 12 z M 1 13 L 3 13 L 3 14 L 1 14 L 1 13 z M 6 14 L 6 15 L 12 15 L 12 14 L 6 14 z M 6 16 L 6 17 L 20 17 L 20 16 L 6 16 z M 6 18 L 6 19 L 16 19 L 16 18 L 6 18 z " style="fill:#222222; fill-opacity:1; stroke:none; stroke-width:0px;"/></g></svg>