<?xml version="1.0" encoding="utf-8"?>
<!-- Generator: Adobe Illustrator 25.0.0, SVG Export Plug-In . SVG Version: 6.00 Build 0)  -->
<svg version="1.1" id="レイヤー_1" xmlns="http://www.w3.org/2000/svg" xmlns:xlink="http://www.w3.org/1999/xlink" x="0px"
	 y="0px" viewBox="0 0 2635 500" style="enable-background:new 0 0 2635 500;" xml:space="preserve">
<style type="text/css">
	.st0{fill:url(#SVGID_1_);}
	.st1{fill:url(#SVGID_2_);}
	.st2{fill:url(#SVGID_3_);}
	.st3{fill:url(#SVGID_4_);}
	.st4{fill:url(#SVGID_5_);}
	.st5{fill:url(#SVGID_6_);}
	.st6{fill:url(#SVGID_7_);}
</style>
<g>
	<linearGradient id="SVGID_1_" gradientUnits="userSpaceOnUse" x1="218.1176" y1="493.3293" x2="218.1176" y2="5">
		<stop  offset="0" style="stop-color:#326432"/>
		<stop  offset="1" style="stop-color:#55A556"/>
	</linearGradient>
	<path class="st0" d="M280.2,444.4c16.8,23.7,28.9,30,56.3,30c5.8,0,10.5-0.5,15.3-1.1v15.3c-13.7,3.2-34.7,4.7-56.8,4.7
		c-35.3,0-57.4-4.2-72.1-13.7c-10-6.8-14.7-12.1-27.9-32.1l-26.8-40c-57.9-10-95.2-31-123.7-68.4C18.7,304.9,5,259.2,5,206.5
		C5,82.9,87.6,5,218.6,5c129.4,0,212.6,78.9,212.6,202.1c0,69.5-22.6,125.2-65.3,160c-29.5,24.2-60.5,36.3-110.5,42.6L280.2,444.4z
		 M96.6,207.1c0,110,48.9,183.6,122.1,183.6c73.7,0,121-72.1,121-183.6c0-105.8-50.5-181-121-181C146,26,96.6,99.7,96.6,207.1z"/>
	<linearGradient id="SVGID_2_" gradientUnits="userSpaceOnUse" x1="612.5535" y1="409.1346" x2="612.5535" y2="116.0313">
		<stop  offset="0" style="stop-color:#326432"/>
		<stop  offset="1" style="stop-color:#55A556"/>
	</linearGradient>
	<path class="st1" d="M678.6,405.4v-35.8c-20,27.9-46.8,39.5-88.9,39.5c-82.1,0-118.9-34.2-118.9-110V116h75.8v180
		c0,24.2,2.1,41,6.8,54.2c9.5,25.3,28.9,38.9,54.7,38.9c40.5,0,70.5-35.3,70.5-82.1V116h75.8v289.4H678.6z"/>
	<linearGradient id="SVGID_3_" gradientUnits="userSpaceOnUse" x1="940.1448" y1="405.4497" x2="940.1448" y2="112.3493">
		<stop  offset="0" style="stop-color:#326432"/>
		<stop  offset="1" style="stop-color:#55A556"/>
	</linearGradient>
	<path class="st2" d="M1005.9,405.4V229.7c0-22.6-1.6-41-5.3-53.1c-7.9-28.4-26.8-44.2-53.7-44.2c-41.6,0-72.6,37.9-72.6,88.4v184.7
		h-75.8V116h75.8v35.8c22.6-26.3,53.7-39.5,92.1-39.5c75.8,0,115.2,38.4,115.2,112.6v180.5H1005.9z"/>
	<linearGradient id="SVGID_4_" gradientUnits="userSpaceOnUse" x1="1279.0535" y1="410.7142" x2="1279.0535" y2="109.19">
		<stop  offset="0" style="stop-color:#326432"/>
		<stop  offset="1" style="stop-color:#55A556"/>
	</linearGradient>
	<path class="st3" d="M1438.5,257.6c0,95.8-58.9,153.1-157.9,153.1c-100.5,0-161-57.9-161-154.2c0-91,61.6-147.3,161.6-147.3
		C1380.1,109.2,1438.5,164.4,1438.5,257.6z M1197.5,256.5c0,78.9,33.1,132.1,83.1,132.1c48.9,0,80-51.6,80-132.6
		c0-75.8-31.6-125.8-79.5-125.8C1232.2,130.2,1197.5,182.3,1197.5,256.5z"/>
	<linearGradient id="SVGID_5_" gradientUnits="userSpaceOnUse" x1="1709.7924" y1="405.4497" x2="1709.7924" y2="112.3493">
		<stop  offset="0" style="stop-color:#326432"/>
		<stop  offset="1" style="stop-color:#55A556"/>
	</linearGradient>
	<path class="st4" d="M1552.2,151.8c17.9-25.3,48.9-39.5,87.4-39.5c49.5,0,77.4,15.3,97.3,52.6c21.6-34.7,54.2-52.6,95.2-52.6
		c74.7,0,111,37.4,111,113.7v179.4h-75.8V221.3c0-31-2.6-50-8.4-62.6c-7.4-16.8-23.2-26.3-43.7-26.3c-36.8,0-68.9,40.5-68.9,86.8
		v186.3h-74.7V218.1c0-21-2.1-36.8-5.8-48.9c-7.4-23.2-25.3-36.8-47.4-36.8c-18.9,0-34.2,8.9-47.9,26.3
		c-9.5,13.2-18.4,40.5-18.4,58.4v188.4h-75.8V116h75.8V151.8z"/>
	<linearGradient id="SVGID_6_" gradientUnits="userSpaceOnUse" x1="2140.543" y1="410.7142" x2="2140.543" y2="109.19">
		<stop  offset="0" style="stop-color:#326432"/>
		<stop  offset="1" style="stop-color:#55A556"/>
	</linearGradient>
	<path class="st5" d="M2300,257.6c0,95.8-58.9,153.1-157.9,153.1c-100.5,0-161-57.9-161-154.2c0-91,61.6-147.3,161.6-147.3
		C2241.6,109.2,2300,164.4,2300,257.6z M2059,256.5c0,78.9,33.1,132.1,83.1,132.1c48.9,0,80-51.6,80-132.6
		c0-75.8-31.6-125.8-79.5-125.8C2093.7,130.2,2059,182.3,2059,256.5z"/>
	<linearGradient id="SVGID_7_" gradientUnits="userSpaceOnUse" x1="2479.4502" y1="405.4497" x2="2479.4502" y2="112.3493">
		<stop  offset="0" style="stop-color:#326432"/>
		<stop  offset="1" style="stop-color:#55A556"/>
	</linearGradient>
	<path class="st6" d="M2545.2,405.4V229.7c0-22.6-1.6-41-5.3-53.1c-7.9-28.4-26.8-44.2-53.7-44.2c-41.6,0-72.6,37.9-72.6,88.4v184.7
		h-75.8V116h75.8v35.8c22.6-26.3,53.7-39.5,92.1-39.5c75.8,0,115.2,38.4,115.2,112.6v180.5H2545.2z"/>
</g>
</svg>
