<?xml version="1.0" encoding="utf-8"?>
<!-- Generator: Adobe Illustrator 25.0.0, SVG Export Plug-In . SVG Version: 6.00 Build 0)  -->
<svg version="1.1" id="レイヤー_1" xmlns="http://www.w3.org/2000/svg" xmlns:xlink="http://www.w3.org/1999/xlink" x="0px"
	 y="0px" viewBox="0 0 2682 500" style="enable-background:new 0 0 2682 500;" xml:space="preserve">
<style type="text/css">
	.st0{fill:url(#SVGID_1_);}
	.st1{fill:url(#SVGID_2_);}
	.st2{fill:url(#SVGID_3_);}
	.st3{fill:url(#SVGID_4_);}
	.st4{fill:url(#SVGID_5_);}
	.st5{fill:url(#SVGID_6_);}
	.st6{fill:url(#SVGID_7_);}
	.st7{clip-path:url(#SVGID_9_);}
	.st8{fill:url(#SVGID_10_);}
	.st9{clip-path:url(#SVGID_9_);fill:#FFFFFF;}
	.st10{fill:url(#SVGID_11_);}
	.st11{opacity:0.3;fill:#131313;}
	.st12{fill:url(#SVGID_12_);}
	.st13{fill:url(#SVGID_13_);}
</style>
<g>
	<g>
		<linearGradient id="SVGID_1_" gradientUnits="userSpaceOnUse" x1="723.4304" y1="494.9851" x2="723.4304" y2="98.781">
			<stop  offset="0" style="stop-color:#326432"/>
			<stop  offset="1" style="stop-color:#55A556"/>
		</linearGradient>
		<path class="st0" d="M773.8,455.3c13.7,19.2,23.5,24.3,45.7,24.3c4.7,0,8.5-0.4,12.4-0.9v12.4c-11.1,2.6-28.2,3.8-46.1,3.8
			c-28.6,0-46.5-3.4-58.5-11.1c-8.1-5.6-12-9.8-22.6-26l-21.8-32.4c-47-8.1-77.3-25.2-100.3-55.5c-20.9-27.8-32-64.9-32-107.6
			c0-100.3,67-163.5,173.3-163.5c105,0,172.5,64,172.5,163.9c0,56.4-18.4,101.6-52.9,129.8c-23.9,19.6-49.1,29.5-89.7,34.6
			L773.8,455.3z M624.8,262.7c0,89.2,39.7,149,99.1,149c59.8,0,98.2-58.5,98.2-149c0-85.8-41-146.9-98.2-146.9
			C664.9,115.9,624.8,175.6,624.8,262.7z"/>
		<linearGradient id="SVGID_2_" gradientUnits="userSpaceOnUse" x1="1043.4545" y1="426.6741" x2="1043.4545" y2="188.8659">
			<stop  offset="0" style="stop-color:#326432"/>
			<stop  offset="1" style="stop-color:#55A556"/>
		</linearGradient>
		<path class="st1" d="M1097,423.7v-29c-16.2,22.6-38,32-72.2,32c-66.6,0-96.5-27.8-96.5-89.2V188.9h61.5v146
			c0,19.6,1.7,33.3,5.6,44c7.7,20.5,23.5,31.6,44.4,31.6c32.9,0,57.2-28.6,57.2-66.6v-155h61.5v234.8H1097z"/>
		<linearGradient id="SVGID_3_" gradientUnits="userSpaceOnUse" x1="1309.2445" y1="423.6844" x2="1309.2445" y2="185.8785">
			<stop  offset="0" style="stop-color:#326432"/>
			<stop  offset="1" style="stop-color:#55A556"/>
		</linearGradient>
		<path class="st2" d="M1362.6,423.7V281.1c0-18.4-1.3-33.3-4.3-43.1c-6.4-23.1-21.8-35.9-43.5-35.9c-33.7,0-58.9,30.7-58.9,71.7
			v149.9h-61.5V188.9h61.5v29c18.4-21.3,43.5-32,74.7-32c61.5,0,93.5,31.2,93.5,91.4v146.4H1362.6z"/>
		<linearGradient id="SVGID_4_" gradientUnits="userSpaceOnUse" x1="1584.2168" y1="427.9557" x2="1584.2168" y2="183.3152">
			<stop  offset="0" style="stop-color:#326432"/>
			<stop  offset="1" style="stop-color:#55A556"/>
		</linearGradient>
		<path class="st3" d="M1713.6,303.7c0,77.7-47.8,124.2-128.1,124.2c-81.5,0-130.6-47-130.6-125.1c0-73.9,50-119.5,131.1-119.5
			C1666.2,183.3,1713.6,228.1,1713.6,303.7z M1518,302.9c0,64,26.9,107.2,67.5,107.2c39.7,0,64.9-41.8,64.9-107.6
			c0-61.5-25.6-102-64.5-102C1546.2,200.4,1518,242.7,1518,302.9z"/>
		<linearGradient id="SVGID_5_" gradientUnits="userSpaceOnUse" x1="1933.6951" y1="423.6844" x2="1933.6951" y2="185.8785">
			<stop  offset="0" style="stop-color:#326432"/>
			<stop  offset="1" style="stop-color:#55A556"/>
		</linearGradient>
		<path class="st4" d="M1805.8,217.9c14.5-20.5,39.7-32,70.9-32c40.1,0,62.8,12.4,79,42.7c17.5-28.2,44-42.7,77.3-42.7
			c60.6,0,90.1,30.3,90.1,92.2v145.6h-61.5V274.3c0-25.2-2.1-40.6-6.8-50.8c-6-13.7-18.8-21.3-35.4-21.3
			c-29.9,0-55.9,32.9-55.9,70.4v151.1h-60.6v-152c0-17.1-1.7-29.9-4.7-39.7c-6-18.8-20.5-29.9-38.4-29.9c-15.4,0-27.7,7.3-38.8,21.3
			c-7.7,10.7-14.9,32.9-14.9,47.4v152.8h-61.5V188.9h61.5V217.9z"/>
		<linearGradient id="SVGID_6_" gradientUnits="userSpaceOnUse" x1="2283.1829" y1="427.9557" x2="2283.1829" y2="183.3152">
			<stop  offset="0" style="stop-color:#326432"/>
			<stop  offset="1" style="stop-color:#55A556"/>
		</linearGradient>
		<path class="st5" d="M2412.5,303.7c0,77.7-47.8,124.2-128.1,124.2c-81.5,0-130.6-47-130.6-125.1c0-73.9,50-119.5,131.1-119.5
			C2365.2,183.3,2412.5,228.1,2412.5,303.7z M2217,302.9c0,64,26.9,107.2,67.5,107.2c39.7,0,64.9-41.8,64.9-107.6
			c0-61.5-25.6-102-64.5-102C2245.2,200.4,2217,242.7,2217,302.9z"/>
		<linearGradient id="SVGID_7_" gradientUnits="userSpaceOnUse" x1="2558.1541" y1="423.6844" x2="2558.1541" y2="185.8785">
			<stop  offset="0" style="stop-color:#326432"/>
			<stop  offset="1" style="stop-color:#55A556"/>
		</linearGradient>
		<path class="st6" d="M2611.5,423.7V281.1c0-18.4-1.3-33.3-4.3-43.1c-6.4-23.1-21.8-35.9-43.6-35.9c-33.7,0-58.9,30.7-58.9,71.7
			v149.9h-61.5V188.9h61.5v29c18.4-21.3,43.6-32,74.7-32c61.5,0,93.5,31.2,93.5,91.4v146.4H2611.5z"/>
	</g>
	<g>
		<g>
			<g>
				<defs>
					<path id="SVGID_8_" d="M230.4,193.2c100.8,0,197.8,40.5,221,101.2c29.3,76.8-66,155.6-221,155.6c-155,0-250.3-78.8-221-155.6
						C32.5,233.7,129.5,193.2,230.4,193.2z"/>
				</defs>
				<clipPath id="SVGID_9_">
					<use xlink:href="#SVGID_8_"  style="overflow:visible;"/>
				</clipPath>
				<g class="st7">
					
						<linearGradient id="SVGID_10_" gradientUnits="userSpaceOnUse" x1="1266.2462" y1="315.5101" x2="1005.6053" y2="576.151" gradientTransform="matrix(-1 0 0 -1 1366.2795 768.2366)">
						<stop  offset="0" style="stop-color:#326432"/>
						<stop  offset="0.5113" style="stop-color:#55A556"/>
						<stop  offset="1" style="stop-color:#326432"/>
					</linearGradient>
					<path class="st8" d="M230.4,193.2c100.8,0,197.8,40.5,221,101.2c29.3,76.8-66,155.6-221,155.6c-155,0-250.3-78.8-221-155.6
						C32.5,233.7,129.5,193.2,230.4,193.2z"/>
				</g>
				<path class="st9" d="M452.8,459.3l-114.2-87.2c37.3-16.1,61.1-40.3,61.1-67.4c0-12.2-4.8-23.8-13.5-34.3l56.7-10.2l-1.4-7.9
					l-61.7,11.1c-27.9-27-82.4-45.5-145.4-46.3v-35.8h-8.1v35.8c-63,0.8-117.4,19.3-145.4,46.3l-65.6-11.8l-1.4,7.9l60.5,10.9
					C65.8,280.9,61,292.5,61,304.7c0,26,21.9,49.4,56.8,65.4L52,425.6l5.2,6.1l68.8-58.1c28.8,11.7,65,18.6,104.4,18.6
					c37.2,0,71.6-6.2,99.6-16.7l118,90.1L452.8,459.3z"/>
			</g>
			<g>
				<linearGradient id="SVGID_11_" gradientUnits="userSpaceOnUse" x1="436.4091" y1="420.4188" x2="377.7254" y2="479.1025">
					<stop  offset="0" style="stop-color:#326432"/>
					<stop  offset="0.5113" style="stop-color:#55A556"/>
					<stop  offset="1" style="stop-color:#326432"/>
				</linearGradient>
				<path class="st10" d="M340.8,442.2l122.4,25.1l-44.1-64.2C398.5,419.7,371.8,433,340.8,442.2z"/>
			</g>
			<polygon class="st11" points="463.3,467.3 97.7,392.3 123,289.1 230.1,207.8 332.3,276.8 			"/>
		</g>
		<g>
			
				<linearGradient id="SVGID_12_" gradientUnits="userSpaceOnUse" x1="245.7321" y1="7.2433" x2="245.7321" y2="347.1613" gradientTransform="matrix(0.9999 1.549787e-02 -1.549787e-02 0.9999 -3.5734 -8.4483)">
				<stop  offset="0" style="stop-color:#E0E0E0"/>
				<stop  offset="0.3019" style="stop-color:#808080"/>
				<stop  offset="0.3392" style="stop-color:#545454"/>
				<stop  offset="0.5144" style="stop-color:#404040"/>
				<stop  offset="0.5778" style="stop-color:#000000"/>
				<stop  offset="0.7612" style="stop-color:#7B7B7B"/>
				<stop  offset="1" style="stop-color:#000000"/>
			</linearGradient>
			<path class="st12" d="M249.5,2.9c23.3-1.2,37.3,6,43.2,20.2c6.2,15,26.9,58.5,22.2,76.8c-2.8,11-19.9,57.3-19.9,57.3
				c-4.9,11.8-9.4,12-15,12.2c-22.3,0.8-40.9,0.4-36.1,25.9c4.9,26.1,36.3,46.7,27.1,69c-6.2,15.1-25.4,74.4-25.4,74.4l-29.4-0.2
				l-71.7-24.1c-8.9-3.5-16.2-16.1-11.6-36.2c16.6-72.6,52.5-230.2,58.8-258.4C207.3,17.4,249.5,2.9,249.5,2.9z M319,304.9
				c30.4,4.3,25.7-37.7,23-48.2c-2.1-8.3-8.5-34.4-25.8-41.4c-10.1-4.1-21.5-2.3-26.7-2.2c-25.1,0.3-7.9,46.7-3.5,59.6
				c3.8,11.3,2.2,18.9,9.5,24.5C300.5,301.1,314.2,304.2,319,304.9z M310.4,313.7c7.5,2,9,4.4,11.3,8.5c2.3,4.1,12.8,22.7,12.8,22.7
				c5.2,10.4,4,31.9-7,28.4l-12.4-2.9l-12.3-5.1c-6.2-1.7-18.6-22-9.2-34.9c0,0-2.3-16,3.7-19.7
				C298.5,310.1,309.5,313.5,310.4,313.7z"/>
			
				<linearGradient id="SVGID_13_" gradientUnits="userSpaceOnUse" x1="281.9527" y1="87.6225" x2="168.9102" y2="450.9327" gradientTransform="matrix(0.9929 0.1193 -0.1193 0.9929 49.6645 -90.8473)">
				<stop  offset="0" style="stop-color:#EED532"/>
				<stop  offset="0.1487" style="stop-color:#F2DC52"/>
				<stop  offset="0.3662" style="stop-color:#FFF8B4"/>
				<stop  offset="0.5982" style="stop-color:#EFC63D"/>
				<stop  offset="0.8916" style="stop-color:#F1BB00"/>
			</linearGradient>
			<path class="st13" d="M235.9,4c19-2.8,27.7,0,33.3,14.1c6,14.9,25.9,58,21,76.1c-2.9,10.9-20.4,56.8-20.4,56.8
				c-5,11.7-9.5,11.9-15,12.1c-22.1,0.8-40.4,0.4-36,25.6c4.5,25.9,35.3,46.2,25.9,68.3c-6.4,14.9-28.6,81.5-28.6,81.5L119,306.7
				c-8.7-3.5-15.8-15.9-11-35.8c15-62.8,57.4-239.7,57.4-239.7c2.3-9.8,9.8-17,20.5-18.9L235.9,4z M303.7,299.1
				c30.8,0.1,25.8-37.4,23.2-47.8c-2.5-10.3-12.1-38.4-37.4-38.2c-25.1,0.3-22.7,41.3-18.4,54.1
				C277.4,286.1,291.9,299.1,303.7,299.1z M297.4,310.7c7.5,0,9,4.4,11.2,8.5c2.3,4.1,12.6,22.6,12.6,22.6
				c5.1,10.3,3.8,31.7-7.1,28.2l-24.5-8c-6.2-1.7-18.4-21.9-8.9-34.7C280.7,327.3,291.4,310.7,297.4,310.7z"/>
		</g>
	</g>
</g>
</svg>
